<svg xmlns="http://www.w3.org/2000/svg" viewBox="0 0 600 400">
    <!-- AWS Cloud Border -->
    <rect x="25" y="25" width="550" height="350" fill="#F1F1F1" stroke="#232F3E" stroke-width="2" rx="5"/>
    <text x="35" y="45" font-family="Arial" font-size="12" fill="#232F3E">AWS Three-Tier Architecture</text>
    
    <!-- Route 53 -->
    <rect x="260" y="10" width="80" height="30" fill="#9D5025" stroke="#232F3E" stroke-width="1" rx="3"/>
    <text x="280" y="28" font-family="Arial" font-size="10" fill="#FFFFFF">Route 53</text>

    <!-- VPC -->
    <rect x="50" y="60" width="500" height="290" fill="#E8F3FF" stroke="#1A73E8" stroke-width="2" rx="3"/>
    <text x="60" y="75" font-family="Arial" font-size="10" fill="#1A73E8">VPC</text>

    <!-- Internet Gateway -->
    <rect x="260" y="50" width="80" height="25" fill="#1A73E8" stroke="#232F3E" stroke-width="1" rx="3"/>
    <text x="280" y="66" font-family="Arial" font-size="10" fill="#FFFFFF">IGW</text>

    <!-- Public Subnet 1 -->
    <rect x="75" y="100" width="220" height="150" fill="#FFFFFF" stroke="#1A73E8" stroke-width="1" stroke-dasharray="3,3" rx="3"/>
    <text x="85" y="115" font-family="Arial" font-size="10" fill="#1A73E8">Public Subnet 1 (AZ-1)</text>
    
    <!-- Public Subnet 2 -->
    <rect x="305" y="100" width="220" height="150" fill="#FFFFFF" stroke="#1A73E8" stroke-width="1" stroke-dasharray="3,3" rx="3"/>
    <text x="315" y="115" font-family="Arial" font-size="10" fill="#1A73E8">Public Subnet 2 (AZ-2)</text>
    
    <!-- ALB -->
    <rect x="250" y="130" width="100" height="30" fill="#FF9900" stroke="#232F3E" stroke-width="1" rx="3"/>
    <text x="280" y="150" font-family="Arial" font-size="10" fill="#FFFFFF">ALB</text>
    
    <!-- Auto Scaling Group -->
    <rect x="100" y="200" width="400" height="100" fill="none" stroke="#00A1F1" stroke-width="2" rx="3"/>
    <text x="250" y="215" font-family="Arial" font-size="10" fill="#00A1F1">Auto Scaling Group</text>
    
    <!-- EC2 Instances -->
    <rect x="120" y="230" width="80" height="40" fill="#ED7100" stroke="#232F3E" stroke-width="1" rx="3"/>
    <text x="135" y="255" font-family="Arial" font-size="10" fill="#FFFFFF">EC2-1</text>
    
    <rect x="400" y="230" width="80" height="40" fill="#ED7100" stroke="#232F3E" stroke-width="1" rx="3"/>
    <text x="415" y="255" font-family="Arial" font-size="10" fill="#FFFFFF">EC2-2</text>
    
    <!-- Route Tables -->
    <rect x="75" y="310" width="70" height="20" fill="#FFFFFF" stroke="#1A73E8" stroke-width="1" rx="3"/>
    <text x="85" y="324" font-family="Arial" font-size="8" fill="#1A73E8">Route Table 1</text>
    
    <rect x="305" y="310" width="70" height="20" fill="#FFFFFF" stroke="#1A73E8" stroke-width="1" rx="3"/>
    <text x="315" y="324" font-family="Arial" font-size="8" fill="#1A73E8">Route Table 2</text>

    <!-- Connection Lines -->
    <line x1="300" y1="40" x2="300" y2="50" stroke="#666666" stroke-width="1"/>
    <line x1="300" y1="75" x2="300" y2="130" stroke="#666666" stroke-width="1"/>
    <line x1="300" y1="160" x2="160" y2="230" stroke="#666666" stroke-width="1"/>
    <line x1="300" y1="160" x2="440" y2="230" stroke="#666666" stroke-width="1"/>
</svg>