<svg xmlns="http://www.w3.org/2000/svg" viewBox="0 0 800 600">
    <!-- AWS Cloud Border -->
    <rect x="50" y="50" width="700" height="500" fill="#F1F1F1" stroke="#232F3E" stroke-width="2" rx="10"/>
    <text x="70" y="80" font-family="Arial" font-size="16" fill="#232F3E">AWS Cloud</text>
    
    <!-- Route 53 -->
    <rect x="375" y="20" width="80" height="40" fill="#9D5025" stroke="#232F3E" stroke-width="1" rx="5"/>
    <text x="395" y="45" font-family="Arial" font-size="12" fill="#FFFFFF">Route 53</text>

    <!-- Internet Gateway -->
    <rect x="375" y="80" width="80" height="40" fill="#1A73E8" stroke="#232F3E" stroke-width="1" rx="5"/>
    <text x="395" y="105" font-family="Arial" font-size="12" fill="#FFFFFF">IGW</text>
    
    <!-- VPC -->
    <rect x="100" y="140" width="600" height="360" fill="#E8F3FF" stroke="#1A73E8" stroke-width="2" rx="5"/>
    <text x="120" y="170" font-family="Arial" font-size="14" fill="#1A73E8">VPC</text>
    
    <!-- Public Subnet 1 -->
    <rect x="150" y="200" width="200" height="250" fill="#FFFFFF" stroke="#1A73E8" stroke-width="1" stroke-dasharray="5,5" rx="5"/>
    <text x="170" y="220" font-family="Arial" font-size="12" fill="#1A73E8">Public Subnet 1</text>
    <text x="170" y="240" font-family="Arial" font-size="12" fill="#666">AZ-1</text>
    
    <!-- Public Subnet 2 -->
    <rect x="450" y="200" width="200" height="250" fill="#FFFFFF" stroke="#1A73E8" stroke-width="1" stroke-dasharray="5,5" rx="5"/>
    <text x="470" y="220" font-family="Arial" font-size="12" fill="#1A73E8">Public Subnet 2</text>
    <text x="470" y="240" font-family="Arial" font-size="12" fill="#666">AZ-2</text>
    
    <!-- Auto Scaling Group -->
    <rect x="250" y="300" width="300" height="150" fill="none" stroke="#00A1F1" stroke-width="2" rx="5"/>
    <text x="350" y="320" font-family="Arial" font-size="14" fill="#00A1F1">Auto Scaling Group</text>
    
    <!-- EC2 Instances -->
    <rect x="200" y="350" width="100" height="60" fill="#ED7100" stroke="#232F3E" stroke-width="1" rx="5"/>
    <text x="220" y="385" font-family="Arial" font-size="12" fill="#FFFFFF">EC2-1</text>
    
    <rect x="500" y="350" width="100" height="60" fill="#ED7100" stroke="#232F3E" stroke-width="1" rx="5"/>
    <text x="520" y="385" font-family="Arial" font-size="12" fill="#FFFFFF">EC2-2</text>
    
    <!-- ALB -->
    <rect x="350" y="180" width="100" height="60" fill="#FF9900" stroke="#232F3E" stroke-width="1" rx="5"/>
    <text x="370" y="215" font-family="Arial" font-size="12" fill="#FFFFFF">ALB</text>
    
    <!-- Connection Lines -->
    <line x1="415" y1="60" x2="415" y2="80" stroke="#666666" stroke-width="2"/>
    <line x1="415" y1="120" x2="415" y2="180" stroke="#666666" stroke-width="2"/>
    <line x1="400" y1="240" x2="250" y2="350" stroke="#666666" stroke-width="2"/>
    <line x1="400" y1="240" x2="550" y2="350" stroke="#666666" stroke-width="2"/>
    
    <!-- External Users -->
    <rect x="375" y="-30" width="80" height="30" fill="#FFFFFF" stroke="#232F3E" stroke-width="1" rx="5"/>
    <text x="395" y="-10" font-family="Arial" font-size="10" fill="#232F3E">Users</text>
    <line x1="415" y1="0" x2="415" y2="20" stroke="#666666" stroke-width="2"/>

    <!-- DNS Resolution Flow Labels -->
    <text x="440" y="40" font-family="Arial" font-size="10" fill="#666">DNS Query</text>
    <text x="440" y="95" font-family="Arial" font-size="10" fill="#666">Traffic Flow</text>

    <!-- Route Tables -->
    <rect x="150" y="470" width="80" height="30" fill="#FFFFFF" stroke="#1A73E8" stroke-width="1" rx="5"/>
    <text x="160" y="490" font-family="Arial" font-size="10" fill="#1A73E8">Route Table 1</text>
    
    <rect x="450" y="470" width="80" height="30" fill="#FFFFFF" stroke="#1A73E8" stroke-width="1" rx="5"/>
    <text x="460" y="490" font-family="Arial" font-size="10" fill="#1A73E8">Route Table 2</text>
</svg>