<svg xmlns="http://www.w3.org/2000/svg" viewBox="0 0 1200 800">
    <!-- AWS Cloud Border -->
    <rect x="100" y="50" width="1000" height="700" fill="#F1F1F1" stroke="#232F3E" stroke-width="2" rx="10"/>
    <text x="120" y="80" font-family="Arial" font-size="20" fill="#232F3E">AWS Cloud - Three-Tier Architecture</text>
    
    <!-- Route 53 and Internet Gateway Tier -->
    <rect x="525" y="20" width="150" height="40" fill="#9D5025" stroke="#232F3E" stroke-width="1" rx="5"/>
    <text x="560" y="45" font-family="Arial" font-size="16" fill="#FFFFFF">Route 53</text>

    <!-- VPC -->
    <rect x="150" y="100" width="900" height="600" fill="#E8F3FF" stroke="#1A73E8" stroke-width="2" rx="5"/>
    <text x="170" y="130" font-family="Arial" font-size="18" fill="#1A73E8">VPC</text>

    <!-- Internet Gateway -->
    <rect x="525" y="100" width="150" height="40" fill="#1A73E8" stroke="#232F3E" stroke-width="1" rx="5"/>
    <text x="560" y="125" font-family="Arial" font-size="16" fill="#FFFFFF">IGW</text>

    <!-- Presentation Tier Label -->
    <text x="170" y="180" font-family="Arial" font-size="16" font-weight="bold" fill="#232F3E">Presentation Tier</text>
    
    <!-- Public Subnet 1 -->
    <rect x="200" y="200" width="350" height="250" fill="#FFFFFF" stroke="#1A73E8" stroke-width="1" stroke-dasharray="5,5" rx="5"/>
    <text x="220" y="220" font-family="Arial" font-size="14" fill="#1A73E8">Public Subnet 1</text>
    <text x="220" y="240" font-family="Arial" font-size="14" fill="#666">AZ-1</text>
    
    <!-- Public Subnet 2 -->
    <rect x="650" y="200" width="350" height="250" fill="#FFFFFF" stroke="#1A73E8" stroke-width="1" stroke-dasharray="5,5" rx="5"/>
    <text x="670" y="220" font-family="Arial" font-size="14" fill="#1A73E8">Public Subnet 2</text>
    <text x="670" y="240" font-family="Arial" font-size="14" fill="#666">AZ-2</text>

    <!-- Application Tier Label -->
    <text x="170" y="480" font-family="Arial" font-size="16" font-weight="bold" fill="#232F3E">Application Tier</text>
    
    <!-- ALB -->
    <rect x="500" y="250" width="200" height="60" fill="#FF9900" stroke="#232F3E" stroke-width="1" rx="5"/>
    <text x="570" y="285" font-family="Arial" font-size="16" fill="#FFFFFF">ALB</text>
    
    <!-- Auto Scaling Group -->
    <rect x="250" y="500" width="700" height="150" fill="none" stroke="#00A1F1" stroke-width="2" rx="5"/>
    <text x="550" y="520" font-family="Arial" font-size="16" fill="#00A1F1">Auto Scaling Group</text>
    
    <!-- EC2 Instances -->
    <rect x="300" y="550" width="150" height="60" fill="#ED7100" stroke="#232F3E" stroke-width="1" rx="5"/>
    <text x="335" y="585" font-family="Arial" font-size="14" fill="#FFFFFF">EC2-1 (Nginx)</text>
    
    <rect x="750" y="550" width="150" height="60" fill="#ED7100" stroke="#232F3E" stroke-width="1" rx="5"/>
    <text x="785" y="585" font-family="Arial" font-size="14" fill="#FFFFFF">EC2-2 (Nginx)</text>
    
    <!-- Route Tables -->
    <rect x="200" y="400" width="100" height="30" fill="#FFFFFF" stroke="#1A73E8" stroke-width="1" rx="5"/>
    <text x="215" y="420" font-family="Arial" font-size="12" fill="#1A73E8">Route Table 1</text>
    
    <rect x="650" y="400" width="100" height="30" fill="#FFFFFF" stroke="#1A73E8" stroke-width="1" rx="5"/>
    <text x="665" y="420" font-family="Arial" font-size="12" fill="#1A73E8">Route Table 2</text>

    <!-- Connection Lines -->
    <line x1="600" y1="60" x2="600" y2="100" stroke="#666666" stroke-width="2"/>
    <line x1="600" y1="140" x2="600" y2="250" stroke="#666666" stroke-width="2"/>
    <line x1="600" y1="310" x2="375" y2="550" stroke="#666666" stroke-width="2"/>
    <line x1="600" y1="310" x2="825" y2="550" stroke="#666666" stroke-width="2"/>

    <!-- External Users -->
    <rect x="525" y="-30" width="150" height="30" fill="#FFFFFF" stroke="#232F3E" stroke-width="1" rx="5"/>
    <text x="570" y="-10" font-family="Arial" font-size="14" fill="#232F3E">Users</text>
    <line x1="600" y1="0" x2="600" y2="20" stroke="#666666" stroke-width="2"/>
</svg>